<?xml version="1.0" encoding="utf-8"?>
<!-- Generator: Adobe Illustrator 26.0.1, SVG Export Plug-In . SVG Version: 6.00 Build 0)  -->
<svg version="1.1" id="Layer_1" xmlns="http://www.w3.org/2000/svg" xmlns:xlink="http://www.w3.org/1999/xlink" x="0px" y="0px"
	 viewBox="0 0 100 100" style="enable-background:new 0 0 100 100;" xml:space="preserve">
<style type="text/css">
	.st0{fill:#009F77;}
</style>
<g>
	<path class="st0" d="M41.6,39.3c0.4,0.7-0.1,1.5-0.8,1.5c-0.8,0-1.2-0.8-0.8-1.5C40.3,38.7,41.2,38.6,41.6,39.3z M40,34.7
		c-0.4,0.6,0.1,1.5,0.8,1.5c0.7,0,1.2-0.8,0.8-1.5C41.2,34,40.3,34.1,40,34.7z M40,48.5C39.6,49.1,40,50,40.8,50
		c0.7,0,1.2-0.8,0.8-1.5C41.2,47.8,40.3,47.9,40,48.5z M40,43.9c-0.4,0.6,0.1,1.5,0.8,1.5c0.7,0,1.2-0.8,0.8-1.5
		C41.2,43.2,40.3,43.3,40,43.9z M43.1,73.3c-0.7,0-1.2,0.8-0.8,1.5c0.4,0.7,1.3,0.6,1.7,0C44.3,74.1,43.9,73.3,43.1,73.3z
		 M43.1,77.9c-0.7,0-1.2,0.8-0.8,1.5c0.4,0.7,1.3,0.6,1.7,0C44.3,78.7,43.9,77.9,43.1,77.9z M40,30.1c-0.4,0.6,0.1,1.5,0.8,1.5
		c0.7,0,1.2-0.8,0.8-1.5C41.2,29.4,40.3,29.5,40,30.1z M40.8,57.2c-0.7,0-1.2,0.8-0.8,1.5c0.4,0.7,1.3,0.6,1.7,0
		C42,58,41.6,57.2,40.8,57.2z M40.8,52.6c-0.7,0-1.2,0.8-0.8,1.5c0.4,0.7,1.3,0.6,1.7,0C42,53.4,41.6,52.6,40.8,52.6z M37.7,32.4
		c-0.4,0.6,0.1,1.5,0.8,1.5c0.7,0,1.2-0.8,0.8-1.5C38.9,31.7,38,31.8,37.7,32.4z M40.8,71c-0.7,0-1.2,0.8-0.8,1.5
		c0.4,0.7,1.3,0.6,1.7,0C42,71.8,41.6,71,40.8,71z M40.8,75.6c-0.7,0-1.2,0.8-0.8,1.5c0.4,0.7,1.3,0.6,1.7,0
		C42,76.4,41.6,75.6,40.8,75.6z M43.1,68.7c-0.7,0-1.2,0.8-0.8,1.5c0.4,0.7,1.3,0.6,1.7,0C44.3,69.5,43.9,68.7,43.1,68.7z
		 M40.8,66.4c-0.7,0-1.2,0.8-0.8,1.5c0.4,0.7,1.3,0.6,1.7,0C42,67.2,41.6,66.4,40.8,66.4z M40.8,61.8c-0.7,0-1.2,0.8-0.8,1.5
		c0.4,0.7,1.3,0.6,1.7,0C42,62.6,41.6,61.8,40.8,61.8z M42.3,46.2c-0.4,0.6,0.1,1.5,0.8,1.5c0.7,0,1.2-0.8,0.8-1.5
		C43.5,45.5,42.6,45.6,42.3,46.2z M45.4,61.8c-0.7,0-1.2,0.8-0.8,1.5c0.4,0.7,1.3,0.6,1.7,0C46.6,62.6,46.2,61.8,45.4,61.8z
		 M45.4,57.2c-0.7,0-1.2,0.8-0.8,1.5c0.4,0.7,1.3,0.6,1.7,0C46.6,58,46.2,57.2,45.4,57.2z M45.4,71c-0.7,0-1.2,0.8-0.8,1.5
		c0.4,0.7,1.3,0.6,1.7,0C46.6,71.8,46.2,71,45.4,71z M45.4,66.4c-0.7,0-1.2,0.8-0.8,1.5c0.4,0.7,1.3,0.6,1.7,0
		C46.6,67.2,46.2,66.4,45.4,66.4z M44.5,43.9c-0.4,0.6,0.1,1.5,0.8,1.5c0.7,0,1.2-0.8,0.8-1.5C45.8,43.2,44.9,43.3,44.5,43.9z
		 M45.4,52.6c-0.7,0-1.2,0.8-0.8,1.5c0.4,0.7,1.3,0.6,1.7,0C46.6,53.4,46.2,52.6,45.4,52.6z M44.5,48.5c-0.4,0.6,0.1,1.5,0.8,1.5
		c0.7,0,1.2-0.8,0.8-1.5C45.8,47.8,44.9,47.9,44.5,48.5z M43.1,59.5c-0.7,0-1.2,0.8-0.8,1.5c0.4,0.7,1.3,0.6,1.7,0
		C44.3,60.3,43.9,59.5,43.1,59.5z M43.1,54.9c-0.7,0-1.2,0.8-0.8,1.5c0.4,0.7,1.3,0.6,1.7,0C44.3,55.7,43.9,54.9,43.1,54.9z
		 M43.1,64.1c-0.7,0-1.2,0.8-0.8,1.5c0.4,0.7,1.3,0.6,1.7,0C44.3,64.9,43.9,64.1,43.1,64.1z M42.3,50.8c-0.4,0.6,0.1,1.5,0.8,1.5
		c0.7,0,1.2-0.8,0.8-1.5C43.5,50.1,42.6,50.2,42.3,50.8z M45.4,75.6c-0.7,0-1.2,0.8-0.8,1.5c0.4,0.7,1.3,0.6,1.7,0
		C46.6,76.4,46.2,75.6,45.4,75.6z M42.3,37c-0.4,0.6,0.1,1.5,0.8,1.5c0.7,0,1.2-0.8,0.8-1.5C43.5,36.3,42.6,36.4,42.3,37z
		 M42.3,41.6c-0.4,0.6,0.1,1.5,0.8,1.5c0.7,0,1.2-0.8,0.8-1.5C43.5,40.9,42.6,41,42.3,41.6z M38.5,68.7c-0.7,0-1.2,0.8-0.8,1.5
		c0.4,0.7,1.3,0.6,1.7,0C39.7,69.5,39.3,68.7,38.5,68.7z M33.9,68.7c-0.7,0-1.2,0.8-0.8,1.5c0.4,0.7,1.3,0.6,1.7,0
		C35.1,69.5,34.7,68.7,33.9,68.7z M33.9,73.3c-0.7,0-1.2,0.8-0.8,1.5c0.4,0.7,1.3,0.6,1.7,0C35.1,74.1,34.7,73.3,33.9,73.3z
		 M33.9,64.1c-0.7,0-1.2,0.8-0.8,1.5c0.4,0.7,1.3,0.6,1.7,0C35.1,64.9,34.7,64.1,33.9,64.1z M33.9,77.9c-0.7,0-1.2,0.8-0.8,1.5
		c0.4,0.7,1.3,0.6,1.7,0C35.1,78.7,34.7,77.9,33.9,77.9z M33.9,59.5c-0.7,0-1.2,0.8-0.8,1.5c0.4,0.7,1.3,0.6,1.7,0
		C35.1,60.3,34.7,59.5,33.9,59.5z M36.2,71c-0.7,0-1.2,0.8-0.8,1.5c0.4,0.7,1.3,0.6,1.7,0C37.4,71.8,37,71,36.2,71z M36.2,75.6
		c-0.7,0-1.2,0.8-0.8,1.5c0.4,0.7,1.3,0.6,1.7,0C37.4,76.4,37,75.6,36.2,75.6z M46.9,14c-0.4,0.6,0.1,1.5,0.8,1.5
		c0.7,0,1.2-0.8,0.8-1.5C48.1,13.3,47.2,13.4,46.9,14z M36.2,66.4c-0.7,0-1.2,0.8-0.8,1.5c0.4,0.7,1.3,0.6,1.7,0
		C37.4,67.2,37,66.4,36.2,66.4z M44.5,11.7c-0.4,0.6,0.1,1.5,0.8,1.5c0.7,0,1.2-0.8,0.8-1.5C45.8,11,44.9,11.1,44.5,11.7z M37.7,37
		c-0.4,0.6,0.1,1.5,0.8,1.5c0.7,0,1.2-0.8,0.8-1.5C38.9,36.3,38,36.4,37.7,37z M51.5,9.4c-0.4,0.6,0.1,1.5,0.8,1.5
		c0.7,0,1.2-0.8,0.8-1.5C52.7,8.7,51.8,8.8,51.5,9.4z M49.2,11.7c-0.4,0.6,0.1,1.5,0.8,1.5c0.7,0,1.2-0.8,0.8-1.5
		C50.4,11,49.5,11.1,49.2,11.7z M53.8,11.7c-0.4,0.6,0.1,1.5,0.8,1.5c0.7,0,1.2-0.8,0.8-1.5C55,11,54.1,11.1,53.8,11.7z M51.5,14
		c-0.4,0.6,0.1,1.5,0.8,1.5c0.7,0,1.2-0.8,0.8-1.5C52.7,13.3,51.8,13.4,51.5,14z M46.9,9.4c-0.4,0.6,0.1,1.5,0.8,1.5
		c0.7,0,1.2-0.8,0.8-1.5C48.1,8.7,47.2,8.8,46.9,9.4z M38.5,59.5c-0.7,0-1.2,0.8-0.8,1.5c0.4,0.7,1.3,0.6,1.7,0
		C39.7,60.3,39.3,59.5,38.5,59.5z M36.2,61.8c-0.7,0-1.2,0.8-0.8,1.5c0.4,0.7,1.3,0.6,1.7,0C37.4,62.6,37,61.8,36.2,61.8z
		 M38.5,64.1c-0.7,0-1.2,0.8-0.8,1.5c0.4,0.7,1.3,0.6,1.7,0C39.7,64.9,39.3,64.1,38.5,64.1z M37.7,41.6c-0.4,0.6,0.1,1.5,0.8,1.5
		c0.7,0,1.2-0.8,0.8-1.5C38.9,40.9,38,41,37.7,41.6z M44.5,39.3c-0.4,0.6,0.1,1.5,0.8,1.5c0.7,0,1.2-0.8,0.8-1.5
		C45.8,38.6,44.9,38.7,44.5,39.3z M37.7,46.2c-0.4,0.6,0.1,1.5,0.8,1.5c0.7,0,1.2-0.8,0.8-1.5C38.9,45.5,38,45.6,37.7,46.2z
		 M37.7,50.8c-0.4,0.6,0.1,1.5,0.8,1.5c0.7,0,1.2-0.8,0.8-1.5C38.9,50.1,38,50.2,37.7,50.8z M38.5,54.9c-0.7,0-1.2,0.8-0.8,1.5
		c0.4,0.7,1.3,0.6,1.7,0C39.7,55.7,39.3,54.9,38.5,54.9z M35.4,48.5C35,49.1,35.4,50,36.2,50c0.7,0,1.2-0.8,0.8-1.5
		C36.6,47.8,35.7,47.9,35.4,48.5z M36.2,52.6c-0.7,0-1.2,0.8-0.8,1.5c0.4,0.7,1.3,0.6,1.7,0C37.4,53.4,37,52.6,36.2,52.6z
		 M36.2,57.2c-0.7,0-1.2,0.8-0.8,1.5c0.4,0.7,1.3,0.6,1.7,0C37.4,58,37,57.2,36.2,57.2z M35.4,43.9c-0.4,0.6,0.1,1.5,0.8,1.5
		c0.7,0,1.2-0.8,0.8-1.5C36.6,43.2,35.7,43.3,35.4,43.9z M38.5,77.9c-0.7,0-1.2,0.8-0.8,1.5c0.4,0.7,1.3,0.6,1.7,0
		C39.7,78.7,39.3,77.9,38.5,77.9z M38.5,73.3c-0.7,0-1.2,0.8-0.8,1.5c0.4,0.7,1.3,0.6,1.7,0C39.7,74.1,39.3,73.3,38.5,73.3z
		 M59.2,57.2c-0.7,0-1.2,0.8-0.8,1.5c0.4,0.7,1.3,0.6,1.7,0C60.4,58,60,57.2,59.2,57.2z M61.5,54.9c-0.7,0-1.2,0.8-0.8,1.5
		c0.4,0.7,1.3,0.6,1.7,0C62.7,55.7,62.3,54.9,61.5,54.9z M60.7,50.8c-0.4,0.6,0.1,1.5,0.8,1.5c0.7,0,1.2-0.8,0.8-1.5
		C61.9,50.1,61,50.2,60.7,50.8z M61.5,59.5c-0.7,0-1.2,0.8-0.8,1.5c0.4,0.7,1.3,0.6,1.7,0C62.7,60.3,62.3,59.5,61.5,59.5z
		 M61.5,64.1c-0.7,0-1.2,0.8-0.8,1.5c0.4,0.7,1.3,0.6,1.7,0C62.7,64.9,62.3,64.1,61.5,64.1z M60.7,37c-0.4,0.6,0.1,1.5,0.8,1.5
		c0.7,0,1.2-0.8,0.8-1.5C61.9,36.3,61,36.4,60.7,37z M60.7,46.2c-0.4,0.6,0.1,1.5,0.8,1.5c0.7,0,1.2-0.8,0.8-1.5
		C61.9,45.5,61,45.6,60.7,46.2z M60.7,41.6c-0.4,0.6,0.1,1.5,0.8,1.5c0.7,0,1.2-0.8,0.8-1.5C61.9,40.9,61,41,60.7,41.6z M61.5,77.9
		c-0.7,0-1.2,0.8-0.8,1.5c0.4,0.7,1.3,0.6,1.7,0C62.7,78.7,62.3,77.9,61.5,77.9z M58.4,34.7c-0.4,0.6,0.1,1.5,0.8,1.5
		c0.7,0,1.2-0.8,0.8-1.5C59.6,34,58.7,34.1,58.4,34.7z M58.4,39.3c-0.4,0.6,0.1,1.5,0.8,1.5c0.7,0,1.2-0.8,0.8-1.5
		C59.6,38.6,58.7,38.7,58.4,39.3z M58.4,43.9c-0.4,0.6,0.1,1.5,0.8,1.5c0.7,0,1.2-0.8,0.8-1.5C59.6,43.2,58.7,43.3,58.4,43.9z
		 M58.4,30.1c-0.4,0.6,0.1,1.5,0.8,1.5c0.7,0,1.2-0.8,0.8-1.5C59.6,29.4,58.7,29.5,58.4,30.1z M61.5,68.7c-0.7,0-1.2,0.8-0.8,1.5
		c0.4,0.7,1.3,0.6,1.7,0C62.7,69.5,62.3,68.7,61.5,68.7z M61.5,73.3c-0.7,0-1.2,0.8-0.8,1.5c0.4,0.7,1.3,0.6,1.7,0
		C62.7,74.1,62.3,73.3,61.5,73.3z M60.7,32.4c-0.4,0.6,0.1,1.5,0.8,1.5c0.7,0,1.2-0.8,0.8-1.5C61.9,31.7,61,31.8,60.7,32.4z
		 M63.8,71c-0.7,0-1.2,0.8-0.8,1.5c0.4,0.7,1.3,0.6,1.7,0C65,71.8,64.6,71,63.8,71z M66.1,73.3c-0.7,0-1.2,0.8-0.8,1.5
		c0.4,0.7,1.3,0.6,1.7,0C67.3,74.1,66.9,73.3,66.1,73.3z M66.1,77.9c-0.7,0-1.2,0.8-0.8,1.5c0.4,0.7,1.3,0.6,1.7,0
		C67.3,78.7,66.9,77.9,66.1,77.9z M66.1,68.7c-0.7,0-1.2,0.8-0.8,1.5c0.4,0.7,1.3,0.6,1.7,0C67.3,69.5,66.9,68.7,66.1,68.7z
		 M66.1,59.5c-0.7,0-1.2,0.8-0.8,1.5c0.4,0.7,1.3,0.6,1.7,0C67.3,60.3,66.9,59.5,66.1,59.5z M89.8,100L72.8,88.7l-18.2,0v9.4h-9.1
		v-9.4l-18.2,0L10.4,100C8.6,79.8,22,44.9,22,44.9l5.5,1.4c1.8-12.5,4.1-22.6,7-30.1C38.6,5.4,43.9,0,50.1,0
		c6.2,0,11.5,5.4,15.6,16.1c2.9,7.5,5.2,17.7,7,30.1l5.5-1.4C78.2,44.8,89.9,72.3,89.8,100z M28.8,53.7l-2.5-0.6
		c-2.5,7.1-7.4,19.5-8.7,33.5l9.2-6.6C27,72.8,27.6,63.4,28.8,53.7z M68.7,80.3c0-0.9-0.1-1.8-0.1-2.7c-0.4,0.1-0.8,0-1.1-0.4
		c-0.4-0.7,0.1-1.5,0.8-1.5c0.1,0,0.1,0,0.2,0c0-0.9-0.1-1.8-0.1-2.7c-0.3,0-0.6-0.1-0.8-0.5c-0.4-0.7,0-1.4,0.7-1.5
		c-0.1-0.9-0.1-1.8-0.2-2.7c-0.2-0.1-0.4-0.2-0.5-0.4c-0.3-0.6-0.1-1.2,0.4-1.4c-0.3-3.4-0.6-6.8-1-10.3c0,0,0,0.1-0.1,0.1
		c-0.3,0.6-1.2,0.7-1.7,0c-0.4-0.7,0.1-1.5,0.8-1.5c0.3,0,0.6,0.2,0.8,0.4c-0.1-1-0.2-2.1-0.4-3.1c-0.1,0.1-0.3,0.1-0.4,0.1
		c-0.8,0-1.2-0.8-0.8-1.5c0.2-0.4,0.6-0.5,1-0.5c-0.5-3.5-1-6.9-1.6-10.2c-0.2,0.3-0.5,0.6-0.9,0.6c-0.8,0-1.2-0.8-0.8-1.5
		c0.3-0.6,1.1-0.7,1.5-0.2c-0.2-1-0.4-2-0.6-3c0,0-0.1,0-0.1,0c-0.8,0-1.2-0.8-0.8-1.5c0.1-0.2,0.4-0.4,0.6-0.5
		c-0.4-1.9-0.8-3.7-1.2-5.4c-0.2,0.3-0.5,0.5-0.8,0.5c-0.8,0-1.2-0.8-0.8-1.5c0.3-0.5,0.9-0.6,1.3-0.4c-0.2-1-0.5-1.9-0.8-2.8
		c-0.6-0.2-0.9-0.9-0.6-1.4c0-0.1,0.1-0.1,0.1-0.1c-0.9-3.1-1.9-5.8-3-8.1c-0.2,0.3-0.5,0.6-0.9,0.6c-0.8,0-1.2-0.8-0.8-1.5
		c0.2-0.4,0.7-0.6,1.1-0.5c-1.9-3.8-4.1-6.2-6.4-6.6c0,0,0.1,0.1,0.1,0.1c0.4,0.7-0.1,1.5-0.8,1.5c-0.8,0-1.2-0.8-0.8-1.5
		c0,0,0.1-0.1,0.1-0.1C47,7.5,44.9,9.8,43,13.5c0.3,0,0.6,0.1,0.9,0.5c0.4,0.7-0.1,1.5-0.8,1.5c-0.3,0-0.6-0.2-0.8-0.4
		c-0.7,1.7-1.5,3.5-2.1,5.6c0.4-0.4,1.1-0.3,1.5,0.2c0.1,0.1,0.1,0.3,0.1,0.4c0.2-0.5,0.5-0.9,0.8-1.3c-0.4-0.3-0.7-0.9-0.4-1.3
		c0.3-0.6,1.2-0.7,1.7,0c0.4-0.3,0.7-0.6,1.2-0.9c-0.6-0.2-0.8-0.9-0.5-1.4c0.3-0.6,1.2-0.7,1.7,0c0.2,0.3,0.2,0.5,0.1,0.8
		c0.9-0.4,1.8-0.6,2.8-0.7c0,0,0,0,0,0c0.3-0.6,1.2-0.7,1.7,0c0,0,0,0,0,0c1,0.1,1.9,0.3,2.8,0.7c0-0.2,0-0.5,0.1-0.7
		c0.3-0.6,1.2-0.7,1.7,0c0.3,0.6,0.1,1.2-0.4,1.4c0.4,0.2,0.8,0.5,1.1,0.8c0.4-0.5,1.2-0.5,1.6,0.1c0.3,0.5,0.1,1-0.2,1.3
		c0.3,0.4,0.6,0.8,0.8,1.2c0.1-0.4,0.6-0.8,1.1-0.7c0.8,0.2,1,1.1,0.5,1.6c-0.3,0.3-0.7,0.3-1.1,0.2c0.3,0.9,0.5,1.8,0.6,2.7
		c0.2,0.1,0.4,0.2,0.6,0.4c0.4,0.7,0,1.4-0.7,1.5c-0.3,1.9-1.1,3.6-2.3,5c0.3,0,0.5,0.2,0.7,0.4c0.4,0.7-0.1,1.5-0.8,1.5
		c-0.6,0-1-0.5-1-0.9c-1.4,1.1-3.1,1.8-5,2c0.2,0.6-0.3,1.2-1,1.2c-0.7,0-1.1-0.6-0.9-1.2c-1.9-0.2-3.6-1-5-2.1
		c0.1,0.6-0.4,1.1-1,1.1c-0.8,0-1.2-0.8-0.8-1.5c0.2-0.3,0.5-0.5,0.9-0.5c-1.2-1.4-2.1-3.1-2.3-5c0,0,0,0,0,0
		c-0.8,0-1.2-0.8-0.8-1.5c0.2-0.3,0.5-0.5,0.8-0.5c0.1-1,0.3-1.9,0.6-2.8c-0.2,0.1-0.4,0.2-0.6,0.2c-0.5,0-0.9-0.3-0.9-0.8
		c-0.6,1.8-1.1,3.7-1.7,5.8c0.4-0.1,0.8,0,1.1,0.4c0.4,0.7-0.1,1.5-0.8,1.5c-0.3,0-0.5-0.1-0.7-0.3c-0.4,1.7-0.8,3.5-1.2,5.3
		c0.2,0.1,0.3,0.2,0.4,0.4c0.4,0.7-0.1,1.5-0.8,1.5C36,37.1,35.9,38,35.7,39c0.4-0.3,1-0.2,1.3,0.3c0.4,0.7-0.1,1.5-0.8,1.5
		c-0.3,0-0.6-0.2-0.8-0.4c-0.6,3.2-1.1,6.6-1.5,9.9c0.3,0,0.6,0.1,0.8,0.5c0.4,0.7-0.1,1.5-0.8,1.5c-0.1,0-0.2,0-0.3,0
		c-0.1,0.9-0.2,1.9-0.3,2.9c0.2-0.1,0.4-0.2,0.6-0.2c0.8,0,1.2,0.8,0.8,1.5c-0.3,0.6-1.2,0.7-1.6,0.1c-0.4,3.4-0.7,6.8-1,10.1
		c0.4,0.3,0.5,0.8,0.3,1.3c-0.1,0.2-0.2,0.3-0.4,0.4c-0.1,0.9-0.1,1.9-0.2,2.8c0.6,0.2,0.9,0.9,0.6,1.4c-0.2,0.3-0.4,0.4-0.7,0.5
		c0,0.9-0.1,1.8-0.1,2.7c0.8,0,1.2,0.8,0.8,1.5c-0.2,0.3-0.6,0.5-0.9,0.5c0,0.9-0.1,1.8-0.1,2.7c0.1,0,0.1,0,0.2,0
		c0.8,0,1.2,0.8,0.8,1.5c0,0.1-0.1,0.1-0.1,0.2h3.2c0,0-0.1-0.1-0.1-0.1c-0.4-0.7,0.1-1.5,0.8-1.5c0.8,0,1.2,0.8,0.8,1.5
		c0,0.1-0.1,0.1-0.1,0.2h3.2c0,0-0.1-0.1-0.1-0.1c-0.4-0.7,0.1-1.5,0.8-1.5c0.8,0,1.2,0.8,0.8,1.5c0,0.1-0.1,0.1-0.1,0.2h3.2
		c0,0-0.1-0.1-0.1-0.1c-0.4-0.7,0.1-1.5,0.8-1.5c0.8,0,1.2,0.8,0.8,1.5c0,0.1-0.1,0.1-0.1,0.2h1.6V44.4h4.7v37.5h1.5
		c0,0-0.1-0.1-0.1-0.1c-0.4-0.7,0.1-1.5,0.8-1.5c0.8,0,1.2,0.8,0.8,1.5c0,0.1-0.1,0.1-0.1,0.2h3.2c0,0-0.1-0.1-0.1-0.1
		c-0.4-0.7,0.1-1.5,0.8-1.5c0.8,0,1.2,0.8,0.8,1.5c0,0.1-0.1,0.1-0.1,0.2h3.2c0,0-0.1-0.1-0.1-0.1c-0.4-0.7,0.1-1.5,0.8-1.5
		c0.8,0,1.2,0.8,0.8,1.5c0,0.1-0.1,0.1-0.1,0.2h3.2c0,0-0.1-0.1-0.1-0.1c-0.4-0.7,0.1-1.5,0.8-1.5C68.5,80.2,68.6,80.2,68.7,80.3z
		 M50.1,30.3c2.6,0,4.7-2.1,4.7-4.7s-2.1-4.7-4.7-4.7s-4.7,2.1-4.7,4.7S47.5,30.3,50.1,30.3z M82.6,86.5c-1.2-14-6.2-26.3-8.7-33.5
		l-2.5,0.6c1.1,9.6,1.7,18.8,2,25.9L82.6,86.5z M63,43.9c-0.4,0.6,0.1,1.5,0.8,1.5c0.7,0,1.3-0.8,0.8-1.5
		C64.2,43.2,63.3,43.3,63,43.9z M66.1,64.1c-0.7,0-1.2,0.8-0.8,1.5c0.4,0.7,1.3,0.6,1.7,0C67.3,64.9,66.9,64.1,66.1,64.1z
		 M63.8,52.6c-0.7,0-1.2,0.8-0.8,1.5c0.4,0.7,1.3,0.6,1.7,0C65,53.4,64.6,52.6,63.8,52.6z M63.8,66.4c-0.7,0-1.2,0.8-0.8,1.5
		c0.4,0.7,1.3,0.6,1.7,0C65,67.2,64.6,66.4,63.8,66.4z M63,48.5c-0.4,0.6,0.1,1.5,0.8,1.5c0.7,0,1.3-0.8,0.8-1.5
		C64.2,47.8,63.3,47.9,63,48.5z M63.8,61.8c-0.7,0-1.2,0.8-0.8,1.5c0.4,0.7,1.3,0.6,1.7,0C65,62.6,64.6,61.8,63.8,61.8z M58.4,48.5
		C58,49.1,58.5,50,59.2,50c0.7,0,1.2-0.8,0.8-1.5C59.6,47.8,58.7,47.9,58.4,48.5z M63.8,57.2c-0.7,0-1.2,0.8-0.8,1.5
		c0.4,0.7,1.3,0.6,1.7,0C65,58,64.6,57.2,63.8,57.2z M63.8,75.6c-0.7,0-1.2,0.8-0.8,1.5c0.4,0.7,1.3,0.6,1.7,0
		C65,76.4,64.6,75.6,63.8,75.6z M56.9,59.5c-0.7,0-1.2,0.8-0.8,1.5c0.4,0.7,1.3,0.6,1.7,0C58.1,60.3,57.7,59.5,56.9,59.5z
		 M54.6,66.4c-0.7,0-1.2,0.8-0.8,1.5c0.4,0.7,1.3,0.6,1.7,0C55.8,67.2,55.4,66.4,54.6,66.4z M54.6,61.8c-0.7,0-1.2,0.8-0.8,1.5
		c0.4,0.7,1.3,0.6,1.7,0C55.8,62.6,55.4,61.8,54.6,61.8z M54.6,52.6c-0.7,0-1.2,0.8-0.8,1.5c0.4,0.7,1.3,0.6,1.7,0
		C55.8,53.4,55.4,52.6,54.6,52.6z M54.6,57.2c-0.7,0-1.2,0.8-0.8,1.5c0.4,0.7,1.3,0.6,1.7,0C55.8,58,55.4,57.2,54.6,57.2z
		 M53.8,39.3c-0.4,0.6,0.1,1.5,0.8,1.5c0.7,0,1.2-0.8,0.8-1.5C55,38.6,54.1,38.7,53.8,39.3z M53.8,34.7c-0.4,0.6,0.1,1.5,0.8,1.5
		c0.7,0,1.2-0.8,0.8-1.5C55,34,54.1,34.1,53.8,34.7z M53.8,48.5c-0.4,0.6,0.1,1.5,0.8,1.5c0.7,0,1.2-0.8,0.8-1.5
		C55,47.8,54.1,47.9,53.8,48.5z M53.8,43.9c-0.4,0.6,0.1,1.5,0.8,1.5c0.7,0,1.2-0.8,0.8-1.5C55,43.2,54.1,43.3,53.8,43.9z M46.9,37
		c-0.4,0.6,0.1,1.5,0.8,1.5c0.7,0,1.2-0.8,0.8-1.5C48.1,36.3,47.2,36.4,46.9,37z M49.2,39.3c-0.4,0.6,0.1,1.5,0.8,1.5
		c0.7,0,1.2-0.8,0.8-1.5C50.4,38.6,49.5,38.7,49.2,39.3z M46.9,41.6c-0.4,0.6,0.1,1.5,0.8,1.5c0.7,0,1.2-0.8,0.8-1.5
		C48.1,40.9,47.2,41,46.9,41.6z M51.5,41.6c-0.4,0.6,0.1,1.5,0.8,1.5c0.7,0,1.2-0.8,0.8-1.5C52.7,40.9,51.8,41,51.5,41.6z
		 M54.6,75.6c-0.7,0-1.2,0.8-0.8,1.5c0.4,0.7,1.3,0.6,1.7,0C55.8,76.4,55.4,75.6,54.6,75.6z M54.6,71c-0.7,0-1.2,0.8-0.8,1.5
		c0.4,0.7,1.3,0.6,1.7,0C55.8,71.8,55.4,71,54.6,71z M51.5,37c-0.4,0.6,0.1,1.5,0.8,1.5c0.7,0,1.2-0.8,0.8-1.5
		C52.7,36.3,51.8,36.4,51.5,37z M56.9,68.7c-0.7,0-1.2,0.8-0.8,1.5c0.4,0.7,1.3,0.6,1.7,0C58.1,69.5,57.7,68.7,56.9,68.7z M56.1,37
		c-0.4,0.6,0.1,1.5,0.8,1.5c0.7,0,1.2-0.8,0.8-1.5C57.3,36.3,56.4,36.4,56.1,37z M56.1,41.6c-0.4,0.6,0.1,1.5,0.8,1.5
		c0.7,0,1.2-0.8,0.8-1.5C57.3,40.9,56.4,41,56.1,41.6z M59.2,75.6c-0.7,0-1.2,0.8-0.8,1.5c0.4,0.7,1.3,0.6,1.7,0
		C60.4,76.4,60,75.6,59.2,75.6z M56.1,46.2c-0.4,0.6,0.1,1.5,0.8,1.5c0.7,0,1.2-0.8,0.8-1.5C57.3,45.5,56.4,45.6,56.1,46.2z
		 M59.2,61.8c-0.7,0-1.2,0.8-0.8,1.5c0.4,0.7,1.3,0.6,1.7,0C60.4,62.6,60,61.8,59.2,61.8z M59.2,71c-0.7,0-1.2,0.8-0.8,1.5
		c0.4,0.7,1.3,0.6,1.7,0C60.4,71.8,60,71,59.2,71z M56.9,77.9c-0.7,0-1.2,0.8-0.8,1.5c0.4,0.7,1.3,0.6,1.7,0
		C58.1,78.7,57.7,77.9,56.9,77.9z M59.2,66.4c-0.7,0-1.2,0.8-0.8,1.5c0.4,0.7,1.3,0.6,1.7,0C60.4,67.2,60,66.4,59.2,66.4z
		 M59.2,52.6c-0.7,0-1.2,0.8-0.8,1.5c0.4,0.7,1.3,0.6,1.7,0C60.4,53.4,60,52.6,59.2,52.6z M56.9,64.1c-0.7,0-1.2,0.8-0.8,1.5
		c0.4,0.7,1.3,0.6,1.7,0C58.1,64.9,57.7,64.1,56.9,64.1z M56.9,73.3c-0.7,0-1.2,0.8-0.8,1.5c0.4,0.7,1.3,0.6,1.7,0
		C58.1,74.1,57.7,73.3,56.9,73.3z M44.5,34.7c-0.4,0.6,0.1,1.5,0.8,1.5c0.7,0,1.2-0.8,0.8-1.5C45.8,34,44.9,34.1,44.5,34.7z
		 M56.9,54.9c-0.7,0-1.2,0.8-0.8,1.5c0.4,0.7,1.3,0.6,1.7,0C58.1,55.7,57.7,54.9,56.9,54.9z M56.1,50.8c-0.4,0.6,0.1,1.5,0.8,1.5
		c0.7,0,1.2-0.8,0.8-1.5C57.3,50.1,56.4,50.2,56.1,50.8z"/>
</g>
</svg>
