<svg id="Layer_1" data-name="Layer 1" xmlns="http://www.w3.org/2000/svg" viewBox="0 0 1920 1080"><defs><style>.cls-1{font-size:101px;font-family:BLACKHAWKItalic, BLACKHAWK Italic;}.cls-2{fill:#2ecc71;}.cls-3{font-size:48px;font-family:Futurice-Regular, Futurice;}.cls-4{letter-spacing:-0.03em;}.cls-5{letter-spacing:0em;}.cls-6{letter-spacing:0.01em;}.cls-7{letter-spacing:-0.01em;}.cls-8{fill:#f7f4ef;}.cls-9{fill:#ff4883;}.cls-10{opacity:0.77;}.cls-11{letter-spacing:-0.01em;}.cls-12{letter-spacing:0em;}.cls-13{fill:#5127c6;}</style></defs><text class="cls-1" transform="translate(1009.55 125.85)">Client Side Rendering</text><rect class="cls-2" x="425.5" y="375.12" width="464" height="386.88"/><text class="cls-3" transform="translate(527.21 829.91)"><tspan class="cls-4">W</tspan><tspan class="cls-5" x="43.1" y="0">eb Se</tspan><tspan class="cls-6" x="165.6" y="0">r</tspan><tspan class="cls-7" x="187.34" y="0">v</tspan><tspan x="212.35" y="0">er</tspan></text><text class="cls-3" transform="translate(1197.81 829.75)">Client</text><rect class="cls-8" x="453.5" y="403.12" width="408" height="92"/><text class="cls-3" transform="translate(591.46 463.75)">HTML</text><rect class="cls-8" x="453.5" y="518.12" width="408" height="92"/><text class="cls-3" transform="translate(610.11 578.75)">CSS</text><rect class="cls-8" x="453" y="629" width="408" height="92"/><text class="cls-3" transform="translate(624 691.12)">JS</text><rect class="cls-9" x="1030.5" y="375.12" width="464" height="386.88"/><rect class="cls-8" x="1058.5" y="403.12" width="408" height="92"/><text class="cls-3" transform="translate(1196.46 463.75)">HTML</text><rect class="cls-8" x="1058.5" y="518.12" width="408" height="92"/><text class="cls-3" transform="translate(1215.11 578.75)">CSS</text><g class="cls-10"><rect class="cls-8" x="1058" y="629" width="408" height="92"/></g><text class="cls-3" transform="translate(1122 691.12)">App <tspan class="cls-11" x="101.18" y="0">L</tspan><tspan class="cls-12" x="127.29" y="0">ogic (JS)</tspan></text><polygon class="cls-13" points="1013 564 964.59 506 964.59 622 1013 564"/><rect class="cls-13" x="900" y="543" width="65" height="42"/></svg>